PathFileType	4	(X/Y/Z)	Kaydara	
DataRate	CameraRate	NumFrames	NumMarkers	Units	OrigDataRate	OrigDataStartFrame	OrigNumFrames	
120.00	120.00	4	72	mm	120.00	66	261	
Frame#	Time	Hips			RightUpLeg			RightLeg			RightFoot			RightFoot_End			LeftUpLeg			LeftLeg			LeftFoot			LeftFoot_End			Spine			Spine1			Spine2			Spine3			Neck			Head			Head_End			RightShoulder			RightArm			RightForeArm			RightHand			RightHandThumb1			RightHandThumb2			RightHandThumb3			RightHandThumb3_End			RightInHandIndex			RightHandIndex1			RightHandIndex2			RightHandIndex3			RightHandIndex3_End			RightInHandMiddle			RightHandMiddle1			RightHandMiddle2			RightHandMiddle3			RightHandMiddle3_End			RightInHandRing			RightHandRing1			RightHandRing2			RightHandRing3			RightHandRing3_End			RightInHandPinky			RightHandPinky1			RightHandPinky2			RightHandPinky3			RightHandPinky3_End			LeftShoulder			LeftArm			LeftForeArm			LeftHand			LeftHandThumb1			LeftHandThumb2			LeftHandThumb3			LeftHandThumb3_End			LeftInHandIndex			LeftHandIndex1			LeftHandIndex2			LeftHandIndex3			LeftHandIndex3_End			LeftInHandMiddle			LeftHandMiddle1			LeftHandMiddle2			LeftHandMiddle3			LeftHandMiddle3_End			LeftInHandRing			LeftHandRing1			LeftHandRing2			LeftHandRing3			LeftHandRing3_End			LeftInHandPinky			LeftHandPinky1			LeftHandPinky2			LeftHandPinky3			LeftHandPinky3_End			
		X1	Y1	Z1	X2	Y2	Z2	X3	Y3	Z3	X4	Y4	Z4	X5	Y5	Z5	X6	Y6	Z6	X7	Y7	Z7	X8	Y8	Z8	X9	Y9	Z9	X10	Y10	Z10	X11	Y11	Z11	X12	Y12	Z12	X13	Y13	Z13	X14	Y14	Z14	X15	Y15	Z15	X16	Y16	Z16	X17	Y17	Z17	X18	Y18	Z18	X19	Y19	Z19	X20	Y20	Z20	X21	Y21	Z21	X22	Y22	Z22	X23	Y23	Z23	X24	Y24	Z24	X25	Y25	Z25	X26	Y26	Z26	X27	Y27	Z27	X28	Y28	Z28	X29	Y29	Z29	X30	Y30	Z30	X31	Y31	Z31	X32	Y32	Z32	X33	Y33	Z33	X34	Y34	Z34	X35	Y35	Z35	X36	Y36	Z36	X37	Y37	Z37	X38	Y38	Z38	X39	Y39	Z39	X40	Y40	Z40	X41	Y41	Z41	X42	Y42	Z42	X43	Y43	Z43	X44	Y44	Z44	X45	Y45	Z45	X46	Y46	Z46	X47	Y47	Z47	X48	Y48	Z48	X49	Y49	Z49	X50	Y50	Z50	X51	Y51	Z51	X52	Y52	Z52	X53	Y53	Z53	X54	Y54	Z54	X55	Y55	Z55	X56	Y56	Z56	X57	Y57	Z57	X58	Y58	Z58	X59	Y59	Z59	X60	Y60	Z60	X61	Y61	Z61	X62	Y62	Z62	X63	Y63	Z63	X64	Y64	Z64	X65	Y65	Z65	X66	Y66	Z66	X67	Y67	Z67	X68	Y68	Z68	X69	Y69	Z69	X70	Y70	Z70	X71	Y71	Z71	X72	Y72	Z72	

66	0.542	7081.203	893.81699	129.612	7169.825479996802	901.5152197153878	89.48150301155462	7063.637458544863	502.34103624994805	19.874813510463326	7036.232283810867	109.48802460213444	5.248751750584767	6919.767855045628	40.697836043870616	143.40436791961838	7005.899698262446	860.6086019242002	183.4960497795027	6902.36113604406	470.9651345549376	296.5929295385616	6789.644518039892	75.01626598329341	455.1368058210838	6642.625563743306	25.908619872679747	344.62282499130635	7018.527240682803	1011.7769369039308	78.87802118854546	6958.9620285018445	1070.774827916826	30.27137475587233	6893.177193240532	1125.718825280432	-23.0567780291952	6825.570101391541	1167.7169597215643	-78.33591736705183	6751.82283555198	1214.121970189575	-134.42962275270588	6676.724702539871	1250.5142418000974	-178.54605396588678	6537.86985781007	1328.3618024027328	-189.40010602820163	6799.16631227234	1211.8051252330163	-132.64818547909638	6880.079992085348	1250.208413792445	-208.325880066057	6974.238832770469	1035.674502660585	-286.756610522045	7139.342561404342	918.6459531969476	-374.0270603137073	7143.792705986604	927.0690016672587	-396.0289798339982	7138.974991110136	922.8306646149734	-418.9709854882889	7137.56667762017	916.8730791592047	-433.84025279607687	7138.0580081965945	909.3349355663923	-445.28863907578705	7152.910172647291	917.4381950860844	-393.9851703748612	7173.370234072529	902.8309530041803	-420.77849823013577	7178.364117715598	890.6780225125308	-439.9164572640083	7173.22117398988	885.6136154974965	-450.9079489870834	7163.401078255543	883.102105869598	-459.3940920236983	7157.053465012422	909.6762739600237	-390.06366313069833	7179.253336772876	891.2309476334157	-414.0757846746647	7185.171444247203	876.9904132731526	-434.35537547638637	7179.191606228681	870.4104775250743	-447.32649000581665	7168.555981792414	867.4339881407412	-456.47102498543404	7159.5692541066865	904.5628555962483	-386.6024872447245	7181.972435180017	883.5863981840735	-405.0973740121884	7187.573616524719	870.2024754271291	-422.11830509236427	7182.04079447382	863.3395184691647	-434.28221485695843	7172.152075116856	860.2963132122036	-442.71558653830147	7161.0043209631185	899.1112473821136	-381.89148458461426	7182.815039278041	876.4981912876159	-395.93603915372506	7187.892771086121	864.3561885030986	-408.4635462075893	7184.143727120214	858.6611666776342	-416.8027730356426	7175.5488810756715	855.5687654716061	-423.9665139349056	6753.368297225552	1184.0112394442851	-99.43138868943507	6692.988290542233	1090.7066226793308	-45.712317543378866	6895.428779006225	1001.4556009574113	-168.13103193622285	7096.731176057912	936.1269304927795	-281.9927953715928	7107.764675528716	951.3407443508798	-298.61555265356634	7136.877805270833	956.9274965932497	-298.5647440660632	7159.421399730397	957.6310416716876	-297.64611033676294	7180.156260185811	955.4911034882473	-296.12468661239524	7116.074752407213	941.4319103354162	-298.6701697437272	7157.678475529365	937.1981089199475	-313.53739058441334	7191.099981872976	933.610237500217	-314.8257174667151	7209.25461495687	933.9521815482484	-310.2206665384816	7222.51156839828	935.9704592659917	-302.76255689349824	7121.011014816497	932.8804603765277	-295.3198745364893	7164.2587831526735	924.1256393559329	-308.0113217742561	7201.250259731889	919.0951423722834	-308.9155384428353	7223.403622219385	918.9724433313472	-303.1190000387501	7238.0308861283975	920.9206012696421	-294.84144579051843	7123.414550858041	926.9317396695789	-292.6626605858877	7164.194478115811	913.8773903930048	-301.99092612060235	7196.9019734110025	908.3666908888033	-302.24537007022127	7218.517898397213	907.650316986956	-296.370721621328	7232.388373495874	909.1986941731501	-288.45342212605726	7125.1548868792615	920.317612558778	-288.46700902156954	7163.56961290113	904.2144168596773	-294.7402026246372	7190.309262020244	898.1018461207263	-294.0700188840167	7206.341429483201	896.7570711937361	-289.3622732218708	7218.781171335503	897.6554621361969	-282.1055358028763
67	0.55	7081.203	893.81699	129.612	7169.993266534404	901.6051162100796	89.66398944731927	7063.540124185618	502.42300866946863	20.455762320601952	7036.278614150297	109.54426560132443	6.13326373256345	6919.796026141008	40.810995369743424	144.3312430180457	7005.702340542809	860.5066894443542	183.3213999286535	6902.094405180622	470.9184786367756	296.54655992005746	6789.176931759379	75.20100375635707	455.678651174731	6642.184628286595	26.294295597168535	345.0149544486639	7018.630257714566	1011.8198303967806	78.85016026520118	6959.138226585151	1070.8715552795134	30.216634097322647	6893.434132298251	1125.881912606468	-23.147094652456808	6825.916173961837	1167.966417927989	-78.47857101008032	6752.25390079568	1214.4575842359218	-134.61997188403663	6677.162907769804	1250.8802327964165	-178.72502208215775	6538.300949235803	1328.7106496404554	-189.62760873682626	6799.631581766251	1212.2491402578894	-132.74825186001883	6880.925034015504	1251.367500902156	-208.19211761207524	6975.9584226941115	1037.1017548335435	-287.7355860411875	7142.329084013048	921.2453481982842	-376.1006917955305	7146.99703275254	929.9950167818346	-398.10190208847797	7142.354858614057	925.97788640708	-421.3167620813805	7141.061147104127	920.154485790324	-436.4012627985927	7141.641476666895	912.7112136109332	-448.0506528402713	7156.112645112706	920.3326110982404	-396.12942708100195	7176.850279256481	906.0608235756973	-423.2065174094136	7182.007593774703	894.0898479181765	-442.6434307259608	7176.934623289927	889.1004505147139	-453.833925774854	7167.151107825361	886.6253188310428	-462.4936495267575	7160.224071086765	912.5025413815601	-392.2714547449401	7182.677450872924	894.3475604668768	-416.59468679876795	7188.768751737407	880.2954305497075	-437.2080858000702	7182.870866164769	873.8011229708769	-450.4229325745319	7172.274067508989	870.8620710227207	-459.75916685539437	7162.710570503379	907.3328754942053	-388.84711596906396	7185.316418515676	886.5691436130053	-407.6504297762158	7191.062897097729	873.3386035473959	-424.969585344396	7185.6061194884605	866.5524895985058	-437.3724582233617	7175.752482039335	863.5417590886227	-445.9879066143164	7164.101418156612	901.803099004694	-384.176723340159	7186.071880680435	879.3386139423897	-398.5265778597246	7191.25624676526	867.3016051700753	-411.30290440117966	7187.557970740304	861.6540083721585	-419.8212752030759	7178.991497133966	858.5854109538586	-427.14909387584004	6753.711509776075	1184.1803736364134	-99.68850290494237	6692.976326694654	1090.4403603441353	-46.4634410911503	6896.112776794144	1002.2354853274894	-169.28821959895845	7098.373771762728	938.1593530605619	-283.485470597227	7109.5800839894855	953.6438060843371	-299.9580805848522	7138.785599311602	959.375502433687	-299.68166543898127	7161.389291438151	960.1665056701646	-298.6287317844998	7182.170625869184	958.0879449222525	-297.0148635554567	7117.900697806088	943.7244653388854	-300.0938849497517	7159.726117759393	939.781966725809	-314.8832137192359	7193.249131298178	936.3274368109036	-316.0469002155426	7211.424155374212	936.7025756778125	-311.3131597837947	7224.669173133441	938.7148021138559	-303.71399737748095	7122.815204440755	935.1229128406906	-296.8049993514798	7166.267456596201	926.6251390619402	-309.45370957192563	7203.366042063332	921.7325017273652	-310.230186371683	7225.542251132334	921.6461834391592	-304.28235597096597	7240.1556023749	923.585937211233	-295.85239304687195	7125.19826497074	929.1320353306054	-294.1940077991323	7166.145291984235	916.273429391629	-303.5265802816008	7198.94207897175	910.8746649301025	-303.6781939024364	7220.577882573037	910.1890156781405	-297.6621305504413	7234.434253236606	911.727421088419	-289.603669560196	7126.904228620538	922.4555691166901	-290.0471999569153	7165.452951776966	906.4958328311297	-296.35727892321125	7192.257028009849	900.4592066738171	-295.6180011953676	7208.300272898873	899.13022064056	-290.8135158006865	7220.725551040449	900.0159673249807	-283.435420586899
68	0.558	7081.203	893.81699	129.612	7170.153124514442	901.6901840279314	89.84371597471748	7063.438770212569	502.4996937183066	21.034236530066902	7036.331915041928	109.60071815676947	7.002256017117977	6919.8354631050115	40.92104979310495	145.242296792093	7005.512867698218	860.4096137925906	183.14954406832362	6901.835930546366	470.87624832172486	296.50158886359225	6788.719858710924	75.38611466790749	456.209142565714	6641.754913552958	26.676490976218833	345.39701849388314	7018.734465210733	1011.8628181852072	78.82152288650644	6959.315955910901	1070.968695609137	30.161227940518696	6893.692842997324	1126.0458205399848	-23.237763503026557	6826.263979983776	1168.217147037222	-78.62090338565753	6752.686784189378	1214.7949190327195	-134.80946782558487	6677.6038325586815	1251.2490488777394	-178.9032582749745	6538.734806451724	1329.0623473555938	-189.85392265173328	6800.0963504726105	1212.691474755633	-132.84783678568724	6881.759900191643	1252.5117469321212	-208.05541040327975	6977.658467293309	1038.5206175671144	-288.68731029159414	7145.269615464128	923.8319619521272	-378.1286472029354	7150.153258855743	932.9063723871416	-400.12721227051827	7145.685501252188	929.109697851098	-423.6107452354764	7144.505530653292	923.4201166315258	-438.9073960606203	7145.17407449054	916.0715459002878	-450.75507282378896	7159.266375509757	923.2126663200347	-398.22541291919254	7180.277814254446	909.274907606294	-425.58108723998794	7185.596832809378	897.4853931919068	-445.31263940527845	7180.5936095505285	892.5709545945103	-456.69960566110444	7170.847058987735	890.1323315239176	-465.530916003425	7163.345896184129	915.3149495539882	-394.4306557305197	7186.049087386494	897.4491945584351	-419.05977460392927	7192.31170552391	883.5850019030287	-440.00224652476356	7186.495503658966	877.1762954739069	-453.4577580242407	7175.937953557806	874.2748406000536	-462.98350354163523	7165.803164238054	910.089422547585	-391.04306537620624	7188.608386621261	889.5377357044807	-410.15006261678093	7194.498541538686	876.4602459486639	-427.7632966969224	7189.117556763009	869.7509886782377	-440.40216389946943	7179.299402343615	866.7729018436567	-449.1976269654483	7167.150050620573	904.4819984497193	-386.4132906002787	7189.277360488444	882.1657663181336	-401.06411444474014	7194.567099681125	870.2336051186982	-414.085932022961	7190.919425869428	864.6335012314805	-422.78127723557225	7182.381690272331	861.5888905734462	-430.2713446861583	6754.058758409929	1184.3544285440653	-99.94457032528788	6692.976219720726	1090.192495911986	-47.2098154427824	6896.789854125982	1003.0193601854854	-170.42359795863194	7099.985963824237	940.1825964456893	-284.9420278811441	7111.36250505171	955.9353340237178	-301.26461919975975	7140.657439029137	961.8101124118884	-300.7642635729542	7163.319092250686	962.6874001286513	-299.5779602183609	7184.145059259738	960.6693436524432	-297.8722261869659	7119.693133148444	946.0056623679785	-301.48056015457286	7161.735385129664	942.3518067487569	-316.1907648176294	7195.356697872887	939.0290307624085	-317.23022422522456	7213.55065077128	939.4366281702102	-312.36903169432077	7226.782881621195	941.4423630241247	-304.6305020750857	7124.585870274194	937.3544471480559	-298.2525617953217	7168.23785378633	929.1113641365132	-310.85705039556234	7205.44006177464	924.3549210790783	-311.50617497399384	7227.637360182023	924.3041273982188	-305.40851506607095	7242.235870672957	926.2350108639474	-296.82797298694226	7126.948566501223	931.321789041231	-295.68744037497646	7168.058521202544	918.6571341225846	-305.022640646416	7200.941583180505	913.3689253695483	-305.07169957286794	7222.595582095754	912.7132132958466	-298.91559895427326	7236.436981234994	914.2412268136721	-290.717681018343	7128.620452336694	924.583513279854	-291.58922135984966	7167.299515216135	908.765910064483	-297.93443887254875	7194.165655483943	902.8042444594242	-297.1261982045352	7210.218775429235	901.4905312198267	-292.2259345541415	7222.628836399184	902.3632950353726	-284.72796653536125
69	0.567	7081.203	893.81699	129.612	7170.304958775489	901.7703675637937	90.02062136471187	7063.333378953935	502.57103337970017	21.61010578695237	7036.392233053541	109.65737340704177	7.855436502391731	6919.886249815331	41.027954106462744	146.1372278085495	7005.331380287867	860.3174327237798	182.98054178120256	6901.585828973157	470.83848667149005	296.4580377024003	6788.2734746706365	75.57156149970973	456.72808318333637	6641.336589059945	27.055103305152336	345.76886613332437	7018.839853002649	1011.9058936633986	78.79211050565556	6959.495194424267	1071.0662349719184	30.105164777852714	6893.953289028862	1126.2105260894664	-23.32876590562878	6826.61346497832	1168.4691113635176	-78.76287998425272	6753.121414970194	1215.1339263308241	-134.99806215941533	6678.047412751843	1251.6206456802427	-179.08071788570692	6539.171367152923	1329.4168551942328	-190.0789885941214	6800.560523075453	1213.1320323381365	-132.94691457126856	6882.584345369655	1253.6408146971603	-207.9157696634781	6979.33845240976	1039.9307345161963	-289.61139555986534	7148.163183474084	926.4051325544384	-380.1101869576348	7153.260355242031	935.8023237389316	-402.10416094518075	7148.965846890049	932.225299302794	-425.85210244610715	7147.8987266247905	926.6691386018165	-441.35775549345476	7148.654675846302	919.4150755811825	-453.4009423352864	7162.3703290782105	926.0776229423527	-400.2723583145978	7183.651720455461	912.4723805693634	-427.90134607343964	7189.1306699486595	900.8637876437186	-447.92313137276324	7184.196951883288	896.0242389549652	-459.5039788347571	7174.487746191784	893.6222473469519	-468.5048325504462	7166.41791037766	918.1127774038617	-396.54048015462894	7189.367137212186	900.5350533012898	-421.4701635109724	7195.799146951288	886.858282860099	-442.7368726645296	7190.064341175252	880.535129937099	-456.42991062850587	7179.54645751702	877.6714238048104	-466.1429251605017	7168.84601080214	912.8317895896579	-393.18954052976	7191.84724833684	892.4914112907165	-412.59538197103086	7197.879416567757	879.566600425897	-430.4984592910859	7192.573955374883	872.9341950347114	-443.37028284573	7182.7916807829	869.9889139842863	-452.3436471824911	7170.149203593816	907.1472581145085	-388.6003821138231	7192.430408333642	884.9789210455285	-403.5477518610462	7197.824227700662	873.1514341512059	-416.8116581570818	7194.226978455617	867.5988797302534	-425.6817566134416	7185.718343154858	864.5784339977803	-433.33219768310454	6754.410006730323	1184.5334132902672	-100.19952607584638	6692.988063639022	1089.9632255805136	-47.95124331051508	6897.4598145579175	1003.8070968129831	-171.53677043960815	7101.567182457627	942.1961552401809	-286.3619132312661	7113.111317337457	958.2147493408946	-302.53464951897297	7142.492664001213	964.2307035901833	-301.8120796553221	7165.21011448991	965.1930746528153	-300.4933722630537	7186.0788499013825	963.2346291849682	-298.6963751455552	7121.451429835643	948.2749243742277	-302.82965216396013	7163.705568670349	944.9069682994145	-317.4595116694498	7197.421928729176	941.7143174178617	-318.3751876857067	7215.6333338831055	942.1536245871574	-313.38781626278757	7228.851923377814	944.152426075884	-305.5116460146446	7126.322386909544	939.574498837417	-299.66200179560167	7170.169272646919	931.5836753412474	-312.22078575039507	7207.471569584931	926.9617181331445	-312.742976693289	7229.688183052502	926.9455787691502	-306.4969918902328	7244.270921347295	928.8671246218568	-297.7677445561029	7128.664834209259	933.5004472000269	-297.14238576514447	7169.933479031702	921.0278929060886	-306.47852445745184	7202.8997589889905	915.8488251159134	-306.425329006741	7224.570253928642	915.22225022864	-300.13060817626354	7238.3958115057585	916.7394511732164	-291.79497899704313	7130.302945010505	926.7009077061372	-293.09248812061315	7169.108634704725	911.0240673831603	-299.4710793486289	7196.034445239169	905.1363535008522	-298.59402303720515	7212.096226977405	903.8373895427342	-293.5989696592153	7224.490315145171	904.6968323687131	-285.9826493015479
